nColumns=19
nRows=83
DataType=double
version=3
OpenSimVersion=4.1
endheader
time	ground_force_1_vx	ground_force_1_vy	ground_force_1_vz	ground_force_1_px	ground_force_1_py	ground_force_1_pz	ground_force_1_mx	ground_force_1_my	ground_force_1_mz	ground_force_2_vx	ground_force_2_vy	ground_force_2_vz	ground_force_2_px	ground_force_2_py	ground_force_2_pz	ground_force_2_mx	ground_force_2_my	ground_force_2_mz
3.35	0	0	0	-0.00273608	0	0.000682806	0	0	0	-282.894	1537.4	29.5588	0.973754	0	-0.391446	0	-0.194645	0
3.36	0	0	0	-0.00273607	0	0.000682892	0	0	0	-235.156	1657.64	87.0521	0.931957	0	-0.391691	-0	0.764114	-0
3.37	0	0	0	-0.00273605	0	0.000682979	0	0	0	-167.208	1720.86	86.4166	0.889764	0	-0.392168	-0	1.73317	-0
3.38	0	0	0	-0.00273603	0	0.000683067	0	0	0	-90.6748	1718.14	60.189	0.847251	0	-0.392707	-0	2.36091	-0
3.39	0	0	0	-0.00273602	0	0.000683155	0	0	0	-10.2688	1660.59	65.1315	0.803286	0	-0.392634	-0	2.85374	-0
3.4	0	0	0	-0.002736	0	0.000683244	0	0	0	72.4339	1551.28	74.0127	0.757769	0	-0.39148	-0	3.30729	-0
3.41	0	0	0	-0.00273598	0	0.000683333	0	0	0	147.006	1386.18	47.3875	0.712094	0	-0.389184	-0	3.37496	-0
3.42	0	0	0	-0.00273596	0	0.000683423	0	0	0	196.869	1172.85	9.29849	0.668206	0	-0.385876	-0	2.73265	-0
3.43	0	0	0	-0.00273595	0	0.000683513	0	0	0	214.447	933.161	-6.92192	0.627055	0	-0.381778	-0	1.8458	-0
3.44	0	0	0	-0.00273593	0	0.000683604	0	0	0	204.396	688.891	-10.5777	0.58712	0	-0.377415	-0	1.82814	-0
3.45	0	0	0	-0.00273591	0	0.000683696	0	0	0	177.783	457.614	-18.8275	0.543453	0	-0.373659	-0	2.93723	-0
3.46	0	0	0	-0.00273589	0	0.000683788	0	0	0	140.289	258.98	-26.7896	0.487185	0	-0.370986	-0	3.44797	-0
3.47	0	0	0	-0.00273587	0	0.00068388	0	0	0	91.7457	118.828	-24.9118	0.405783	0	-0.364878	-0	1.20505	-0
3.48	0	0	0	-0.00273586	0	0.000683973	0	0	0	0	0	0	-0.0027359	0	0.000684046	0	0	0
3.49	0	0	0	-0.00273584	0	0.000684067	0	0	0	0	0	0	-0.00273588	0	0.000684139	0	0	0
3.5	0	0	0	-0.00273582	0	0.000684161	0	0	0	0	0	0	-0.00273586	0	0.000684232	0	0	0
3.51	0	0	0	-0.0027358	0	0.000684255	0	0	0	0	0	0	-0.00273585	0	0.000684326	0	0	0
3.52	0	0	0	-0.00273578	0	0.00068435	0	0	0	0	0	0	-0.00273583	0	0.00068442	0	0	0
3.53	0	0	0	-0.00273576	0	0.000684445	0	0	0	0	0	0	-0.00273581	0	0.000684515	0	0	0
3.54	0	0	0	-0.00273574	0	0.000684541	0	0	0	0	0	0	-0.00273579	0	0.000684609	0	0	0
3.55	0	0	0	-0.00273573	0	0.000684636	0	0	0	0	0	0	-0.00273577	0	0.000684705	0	0	0
3.56	0	0	0	-0.00273571	0	0.000684733	0	0	0	0	0	0	-0.00273575	0	0.0006848	0	0	0
3.57	0	0	0	-0.00273569	0	0.000684829	0	0	0	0	0	0	-0.00273573	0	0.000684896	0	0	0
3.58	-1.17254	59.0258	-5.49768	0.988056	0	-0.369859	0	-0.389921	0	0	0	0	-0.00273571	0	0.000684993	0	0	0
3.59	-13.967	194.411	-16.646	0.995608	0	-0.302021	0	-0.295591	0	0	0	0	-0.00273569	0	0.000685089	0	0	0
3.6	-34.4574	490.122	-34.9709	0.982915	0	-0.309367	0	-0.14585	0	0	0	0	-0.00273567	0	0.000685186	0	0	0
3.61	-74.8443	920.025	-25.1601	0.971721	0	-0.31045	-0	1.15964	-0	0	0	0	-0.00273565	0	0.000685283	0	0	0
3.62	-127.342	1293.06	33.3696	0.959274	0	-0.310348	-0	2.49974	-0	0	0	0	-0.00273563	0	0.000685381	0	0	0
3.63	-171.133	1484.22	68.9288	0.942783	0	-0.30964	-0	2.26405	-0	0	0	0	-0.00273561	0	0.000685479	0	0	0
3.64	-193.082	1566.47	20.9724	0.919294	0	-0.30815	-0	0.146478	-0	0	0	0	-0.00273559	0	0.000685577	0	0	0
3.65	-179.187	1632.22	-33.6405	0.887541	0	-0.305551	0	-2.72079	0	0	0	0	-0.00273557	0	0.000685675	0	0	0
3.66	-136.004	1696.31	-32.8277	0.849648	0	-0.302164	0	-4.88401	0	0	0	0	-0.00273556	0	0.000685773	0	0	0
3.67	-73.7247	1722.48	-33.4951	0.809644	0	-0.299095	0	-5.66364	0	0	0	0	-0.00273554	0	0.000685872	0	0	0
3.68	-5.61948	1686.48	-66.2701	0.770033	0	-0.297204	0	-5.48834	0	0	0	0	-0.00273552	0	0.00068597	0	0	0
3.69	58.6207	1592.49	-73.0859	0.730684	0	-0.296483	0	-5.40848	0	0	0	0	-0.0027355	0	0.000686069	0	0	0
3.7	121.526	1442.52	-37.7761	0.69024	0	-0.296524	0	-6.13039	0	0	0	0	-0.00273548	0	0.000686168	0	0	0
3.71	182.678	1235.03	-8.99126	0.647844	0	-0.296999	0	-7.3307	0	0	0	0	-0.00273546	0	0.000686267	0	0	0
3.72	217.597	988.968	-1.46954	0.60396	0	-0.297617	0	-7.92798	0	0	0	0	-0.00273544	0	0.000686367	0	0	0
3.73	208.332	735.841	4.67711	0.559728	0	-0.297932	0	-7.07343	0	0	0	0	-0.00273542	0	0.000686466	0	0	0
3.74	172.917	500.566	11.4771	0.514812	0	-0.297196	0	-4.89438	0	0	0	0	-0.0027354	0	0.000686566	0	0	0
3.75	133.63	297.322	10.9163	0.463937	0	-0.293657	0	-2.32458	0	0	0	0	-0.00273538	0	0.000686665	0	0	0
3.76	91.5922	143.771	2.39733	0.389583	0	-0.27926	0	-0.288449	0	0	0	0	-0.00273536	0	0.000686765	0	0	0
3.77	46.4546	56.2771	-6.20208	0.192431	0	-0.154828	-0	0.768525	-0	0	0	0	-0.00273534	0	0.000686864	0	0	0
3.78	0	0	0	-0.00273528	0	0.000686911	0	0	0	0	0	0	-0.00273532	0	0.000686964	0	0	0
3.79	0	0	0	-0.00273526	0	0.000687011	0	0	0	0	0	0	-0.0027353	0	0.000687063	0	0	0
3.8	0	0	0	-0.00273524	0	0.000687111	0	0	0	0	0	0	-0.00273528	0	0.000687163	0	0	0
3.81	0	0	0	-0.00273522	0	0.000687211	0	0	0	0	0	0	-0.00273526	0	0.000687262	0	0	0
3.82	0	0	0	-0.0027352	0	0.000687312	0	0	0	0	0	0	-0.00273524	0	0.000687362	0	0	0
3.83	0	0	0	-0.00273518	0	0.000687412	0	0	0	0	0	0	-0.00273522	0	0.000687461	0	0	0
3.84	0	0	0	-0.00273517	0	0.000687512	0	0	0	0	0	0	-0.0027352	0	0.000687561	0	0	0
3.85	0	0	0	-0.00273515	0	0.000687612	0	0	0	0	0	0	-0.00273518	0	0.00068766	0	0	0
3.86	0	0	0	-0.00273513	0	0.000687711	0	0	0	-38.5044	103.938	-16.9105	1.04344	0	-0.38145	0	-0.456558	0
3.87	0	0	0	-0.00273511	0	0.000687811	0	0	0	-61.8929	269.833	-21.673	1.01833	0	-0.377941	0	-2.94338	0
3.88	0	0	0	-0.00273509	0	0.000687911	0	0	0	-71.707	546.676	0.997444	1.00718	0	-0.375351	0	-3.02908	0
3.89	0	0	0	-0.00273507	0	0.00068801	0	0	0	-91.9338	843.652	43.6895	0.997739	0	-0.374279	0	-1.79005	0
3.9	0	0	0	-0.00273505	0	0.000688109	0	0	0	-146.29	1028.42	66.6606	0.987361	0	-0.374641	0	-1.04035	0
3.91	0	0	0	-0.00273503	0	0.000688208	0	0	0	-211.222	1110.96	32.1386	0.972112	0	-0.375988	0	-1.38361	0
3.92	0	0	0	-0.00273501	0	0.000688307	0	0	0	-251.103	1205.7	-11.1787	0.94767	0	-0.377197	0	-2.21229	0
3.93	0	0	0	-0.00273499	0	0.000688406	0	0	0	-245.776	1357.27	12.4046	0.913651	0	-0.377421	0	-2.74523	0
3.94	0	0	0	-0.00273497	0	0.000688504	0	0	0	-205.975	1516.8	62.1418	0.87405	0	-0.377192	0	-2.64428	0
3.95	0	0	0	-0.00273495	0	0.000688602	0	0	0	-145.687	1618.3	64.2306	0.832471	0	-0.377358	0	-1.90741	0
3.96	0	0	0	-0.00273493	0	0.0006887	0	0	0	-72.409	1648.8	37.9714	0.789945	0	-0.377819	0	-0.721658	0
3.97	0	0	0	-0.00273491	0	0.000688798	0	0	0	7.3224	1625.91	39.5203	0.746363	0	-0.377846	-0	0.51037	-0
3.98	0	0	0	-0.0027349	0	0.000688895	0	0	0	85.1008	1551.92	54.8408	0.701813	0	-0.376928	-0	1.33953	-0
3.99	0	0	0	-0.00273488	0	0.000688992	0	0	0	155.155	1419.59	42.0653	0.656836	0	-0.375031	-0	1.57033	-0
4	0	0	0	-0.00273486	0	0.000689088	0	0	0	208.654	1232.29	12.281	0.612351	0	-0.372326	-0	1.34794	-0
4.01	0	0	0	-0.00273484	0	0.000689185	0	0	0	236.923	1009.68	-4.82153	0.569461	0	-0.368977	-0	1.09829	-0
4.02	0	0	0	-0.00273482	0	0.000689281	0	0	0	234.391	777.635	-9.38946	0.52857	0	-0.365277	-0	1.38811	-0
4.03	0	0	0	-0.0027348	0	0.000689376	0	0	0	206.099	552.36	-12.6289	0.487578	0	-0.361829	-0	2.41658	-0
4.04	0	0	0	-0.00273478	0	0.000689471	0	0	0	165.98	346.442	-15.9893	0.439383	0	-0.359307	-0	3.37766	-0
4.05	0	0	0	-0.00273476	0	0.000689566	0	0	0	119.408	183.623	-16.4395	0.367495	0	-0.35698	-0	2.82046	-0
4.06	0	0	0	-0.00273475	0	0.00068966	0	0	0	68.4791	82.4545	-10.0189	0.234581	0	-0.341095	-0	0.314958	-0
4.07	0	0	0	-0.00273473	0	0.000689754	0	0	0	0	0	0	-0.00273475	0	0.000689789	0	0	0
4.08	0	0	0	-0.00273471	0	0.000689848	0	0	0	0	0	0	-0.00273473	0	0.000689881	0	0	0
4.09	0	0	0	-0.00273469	0	0.000689941	0	0	0	0	0	0	-0.00273471	0	0.000689974	0	0	0
4.1	0	0	0	-0.00273467	0	0.000690033	0	0	0	0	0	0	-0.00273469	0	0.000690066	0	0	0
4.11	0	0	0	-0.00273466	0	0.000690125	0	0	0	0	0	0	-0.00273468	0	0.000690157	0	0	0
4.12	0	0	0	-0.00273464	0	0.000690217	0	0	0	0	0	0	-0.00273466	0	0.000690248	0	0	0
4.13	0	0	0	-0.00273462	0	0.000690308	0	0	0	0	0	0	-0.00273464	0	0.000690338	0	0	0
4.14	-28.1551	72.7903	-10.0344	1.15812	0	-0.164461	0	-0.627306	0	0	0	0	-0.00273462	0	0.000690428	0	0	0
4.15	-52.7683	203.596	-20.2917	1.00113	0	-0.291956	0	-0.505287	0	0	0	0	-0.0027346	0	0.000690518	0	0	0
4.16	-68.0722	458.804	-20.1408	0.982368	0	-0.295627	-0	0.18089	-0	0	0	0	-0.00273459	0	0.000690606	0	0	0
4.17	-81.7954	793.417	-1.16606	0.969063	0	-0.295501	-0	1.34237	-0	0	0	0	-0.00273457	0	0.000690694	0	0	0
